<?xml version="1.0" encoding="UTF-8"?>
<svg id="Layer_1" xmlns="http://www.w3.org/2000/svg" xmlns:xlink="http://www.w3.org/1999/xlink" version="1.1" viewBox="0 0 812.8 509.92">
  <!-- Generator: Adobe Illustrator 30.1.0, SVG Export Plug-In . SVG Version: 2.1.1 Build 136)  -->
  <defs>
    <style>
      .st0 {
        fill: url(#linear-gradient2);
      }

      .st1 {
        fill: url(#linear-gradient1);
      }

      .st2 {
        fill: url(#linear-gradient9);
      }

      .st3 {
        fill: url(#linear-gradient3);
      }

      .st4 {
        fill: url(#linear-gradient6);
      }

      .st5 {
        fill: url(#linear-gradient8);
      }

      .st6 {
        fill: url(#linear-gradient7);
      }

      .st7 {
        fill: url(#linear-gradient5);
      }

      .st8 {
        fill: url(#linear-gradient4);
      }

      .st9 {
        fill: url(#linear-gradient12);
      }

      .st10 {
        fill: url(#linear-gradient11);
      }

      .st11 {
        fill: url(#linear-gradient10);
      }

      .st12 {
        stroke: #d1d1d1;
      }

      .st12, .st13 {
        fill: none;
        stroke-linecap: round;
        stroke-width: 20px;
      }

      .st14 {
        fill: url(#linear-gradient);
      }

      .st13 {
        stroke: #fff;
      }
    </style>
    <linearGradient id="linear-gradient" x1="424.89" y1="182.58" x2="456.31" y2="62.98" gradientTransform="translate(0 509.89) scale(1 -1)" gradientUnits="userSpaceOnUse">
      <stop offset="0" stop-color="#7f83bf"/>
      <stop offset="1" stop-color="#7253a2"/>
    </linearGradient>
    <linearGradient id="linear-gradient1" x1="820.7" y1="-9.75" x2="820.7" y2="248.71" gradientTransform="translate(-234.16 432.97) scale(1 -1.47) skewX(-53.99)" gradientUnits="userSpaceOnUse">
      <stop offset="0" stop-color="#7f83bf"/>
      <stop offset="1" stop-color="#7253a2"/>
    </linearGradient>
    <linearGradient id="linear-gradient2" x1="55.21" y1="269.39" x2="757.59" y2="269.39" gradientTransform="translate(0 509.89) scale(1 -1)" gradientUnits="userSpaceOnUse">
      <stop offset="0" stop-color="#4b403e"/>
      <stop offset="1" stop-color="#000"/>
    </linearGradient>
    <linearGradient id="linear-gradient3" x1="457.37" y1="130.93" x2="1181.13" y2="130.93" gradientTransform="translate(-234.16 432.97) scale(1 -1.47) skewX(-53.99)" gradientUnits="userSpaceOnUse">
      <stop offset="0" stop-color="#f5b045"/>
      <stop offset=".31" stop-color="#f5b248"/>
      <stop offset=".55" stop-color="#f6ba51"/>
      <stop offset=".77" stop-color="#f8c862"/>
      <stop offset=".97" stop-color="#fbdc79"/>
      <stop offset="1" stop-color="#fce07e"/>
    </linearGradient>
    <linearGradient id="linear-gradient4" x1="282.31" y1="114.64" x2="236.34" y2="91.31" gradientTransform="translate(8.38 458.45) rotate(-3.96) scale(1 -1) skewX(2.87)" gradientUnits="userSpaceOnUse">
      <stop offset=".12" stop-color="#f5b248"/>
      <stop offset=".52" stop-color="#fce07e"/>
      <stop offset="1" stop-color="#f5b045"/>
    </linearGradient>
    <linearGradient id="linear-gradient5" x1="331.43" y1="75.89" x2="272.44" y2="177.36" gradientTransform="translate(8.38 458.45) rotate(-3.96) scale(1 -1) skewX(2.87)" gradientUnits="userSpaceOnUse">
      <stop offset=".12" stop-color="#f5b248"/>
      <stop offset=".52" stop-color="#fce07e"/>
      <stop offset="1" stop-color="#f5b045"/>
    </linearGradient>
    <linearGradient id="linear-gradient6" x1="242.27" y1="131.63" x2="353.9" y2="131.63" gradientTransform="translate(8.38 458.45) rotate(-3.96) scale(1 -1) skewX(2.87)" gradientUnits="userSpaceOnUse">
      <stop offset="0" stop-color="#f5b045"/>
      <stop offset=".31" stop-color="#f5b248"/>
      <stop offset=".55" stop-color="#f6ba51"/>
      <stop offset=".77" stop-color="#f8c862"/>
      <stop offset=".97" stop-color="#fbdc79"/>
      <stop offset="1" stop-color="#fce07e"/>
    </linearGradient>
    <linearGradient id="linear-gradient7" x1="339.86" y1="220.35" x2="293.89" y2="197.02" gradientTransform="translate(8.38 458.45) rotate(-3.96) scale(1 -1) skewX(2.87)" gradientUnits="userSpaceOnUse">
      <stop offset=".12" stop-color="#f5b248"/>
      <stop offset=".52" stop-color="#fce07e"/>
      <stop offset="1" stop-color="#f5b045"/>
    </linearGradient>
    <linearGradient id="linear-gradient8" x1="388.79" y1="182" x2="329.8" y2="283.48" gradientTransform="translate(8.38 458.45) rotate(-3.96) scale(1 -1) skewX(2.87)" gradientUnits="userSpaceOnUse">
      <stop offset=".12" stop-color="#f5b248"/>
      <stop offset=".52" stop-color="#fce07e"/>
      <stop offset="1" stop-color="#f5b045"/>
    </linearGradient>
    <linearGradient id="linear-gradient9" x1="299.63" y1="237.38" x2="411.25" y2="237.38" gradientTransform="translate(8.38 458.45) rotate(-3.96) scale(1 -1) skewX(2.87)" gradientUnits="userSpaceOnUse">
      <stop offset="0" stop-color="#f5b045"/>
      <stop offset=".31" stop-color="#f5b248"/>
      <stop offset=".55" stop-color="#f6ba51"/>
      <stop offset=".77" stop-color="#f8c862"/>
      <stop offset=".97" stop-color="#fbdc79"/>
      <stop offset="1" stop-color="#fce07e"/>
    </linearGradient>
    <linearGradient id="linear-gradient10" x1="530.98" y1="216.14" x2="485.01" y2="192.81" gradientTransform="translate(8.38 458.45) rotate(-3.96) scale(1 -1) skewX(2.87)" gradientUnits="userSpaceOnUse">
      <stop offset=".12" stop-color="#f5b248"/>
      <stop offset=".52" stop-color="#fce07e"/>
      <stop offset="1" stop-color="#f5b045"/>
    </linearGradient>
    <linearGradient id="linear-gradient11" x1="580.29" y1="178.36" x2="521.29" y2="279.83" gradientTransform="translate(8.38 458.45) rotate(-3.96) scale(1 -1) skewX(2.87)" gradientUnits="userSpaceOnUse">
      <stop offset=".12" stop-color="#f5b248"/>
      <stop offset=".52" stop-color="#fce07e"/>
      <stop offset="1" stop-color="#f5b045"/>
    </linearGradient>
    <linearGradient id="linear-gradient12" x1="490.61" y1="233.44" x2="602.23" y2="233.44" gradientTransform="translate(8.38 458.45) rotate(-3.96) scale(1 -1) skewX(2.87)" gradientUnits="userSpaceOnUse">
      <stop offset="0" stop-color="#f5b045"/>
      <stop offset=".31" stop-color="#f5b248"/>
      <stop offset=".55" stop-color="#f6ba51"/>
      <stop offset=".77" stop-color="#f8c862"/>
      <stop offset=".97" stop-color="#fbdc79"/>
      <stop offset="1" stop-color="#fce07e"/>
    </linearGradient>
  </defs>
  <path class="st14" d="M796.23,293.27l-488.72,214.66c-7.96,3.49-17.19,2.32-24.01-3.06L11.47,290.58c-13.95-10.99-11.16-62.87,5.1-70.01L505.28,5.91c7.96-3.49,17.19-2.32,24.01,3.06l272.03,214.29c13.95,10.99,11.16,62.87-5.1,70.01h.01Z"/>
  <path class="st1" d="M796.23,261.85l-488.72,214.66c-7.96,3.49-17.19,2.32-24.01-3.06L11.47,259.16c-13.95-10.99-11.16-32.87,5.1-40.01L505.28,4.49c7.96-3.49,17.19-2.32,24.01,3.06l272.03,214.29c13.95,10.99,11.16,32.87-5.1,40.01h.01Z"/>
  <g>
    <path class="st0" d="M745.36,259.06l-424.94,186.65c-6.92,3.04-14.95,2.02-20.88-2.66L63.01,256.73c-12.13-9.55-9.7-28.58,4.43-34.79L492.38,35.29c6.92-3.04,14.95-2.02,20.88,2.66l236.53,186.33c12.13,9.55,9.7,28.58-4.43,34.79h0Z"/>
    <path class="st3" d="M312.19,449.62c-4.99,0-9.92-1.65-13.99-4.86L61.66,258.43c-6.3-4.96-9.46-12.68-8.44-20.63,1.01-7.96,6-14.63,13.35-17.86L491.5,33.3c7.67-3.37,16.52-2.24,23.1,2.94l236.53,186.33c6.3,4.96,9.46,12.68,8.44,20.63-1.01,7.96-6,14.63-13.34,17.86l-.87-1.99.87,1.99-424.94,186.65c-2.93,1.29-6.03,1.92-9.11,1.92h.01ZM500.61,35.73c-2.49,0-4.99.51-7.36,1.55L68.31,223.93c-5.93,2.61-9.96,8-10.78,14.42s1.73,12.66,6.82,16.67l236.53,186.33c5.32,4.19,12.46,5.1,18.66,2.38l424.94-186.65c5.93-2.61,9.96-8,10.78-14.42.82-6.43-1.73-12.66-6.82-16.67L511.91,39.65c-3.29-2.59-7.27-3.93-11.3-3.93h0Z"/>
  </g>
  <line class="st12" x1="171.26" y1="212.59" x2="372.22" y2="371.82"/>
  <g>
    <path class="st8" d="M348.16,349.63l-19.11,9.46c-6.88,3.52-14.96,3.05-21-1.21l-53.5-42.03c-12.35-8.71-10.27-27.91,3.8-35.1l19.11-9.46c6.88-3.52,14.96-3.05,21,1.21l53.5,42.03c12.35,8.71,10.27,27.91-3.8,35.1h0Z"/>
    <path class="st7" d="M346.95,338.82l-18.2,9.01c-6.56,3.35-14.25,2.91-20.01-1.15l-50.95-40.03c-11.76-8.3-9.78-26.58,3.62-33.43l18.2-9.01c6.56-3.35,14.25-2.91,20.01,1.15l50.95,40.03c11.76,8.3,9.78,26.58-3.62,33.43Z"/>
    <path class="st4" d="M320.95,352.1c-4.77.33-9.52-.92-13.46-3.7l-50.95-40.03c-6.11-4.31-9.26-11.45-8.44-19.09.83-7.64,5.48-14.33,12.44-17.89l18.2-9.01c7.27-3.71,15.75-3.23,22.13,1.28l50.96,40.03c6.11,4.31,9.26,11.45,8.44,19.09-.83,7.64-5.48,14.33-12.44,17.89l-.87-1.84.87,1.84-18.2,9.01c-2.78,1.42-5.73,2.22-8.67,2.43h0ZM287.48,264.09c-2.38.16-4.76.82-7,1.96l-18.2,9.01c-5.62,2.87-9.38,8.28-10.05,14.45s1.88,11.94,6.82,15.42l50.95,40.03c5.15,3.64,12,4.03,17.88,1.03l18.2-9.01c5.62-2.87,9.38-8.28,10.05-14.45s-1.88-11.94-6.82-15.42l-50.96-40.03c-3.19-2.25-7.02-3.26-10.87-2.99Z"/>
  </g>
  <line class="st13" x1="305.92" y1="155.75" x2="506.88" y2="314.99"/>
  <g>
    <path class="st6" d="M403.6,239.8l-19.11,9.46c-6.88,3.52-14.96,3.05-21-1.21l-53.5-42.03c-12.35-8.71-10.27-27.91,3.8-35.1l19.11-9.46c6.88-3.52,14.96-3.05,21,1.21l53.5,42.03c12.35,8.71,10.27,27.91-3.8,35.1h0Z"/>
    <path class="st5" d="M402.38,228.99l-18.2,9.01c-6.56,3.35-14.25,2.91-20.01-1.15l-50.95-40.03c-11.76-8.3-9.78-26.58,3.62-33.43l18.2-9.01c6.56-3.35,14.25-2.91,20.01,1.15l50.95,40.03c11.76,8.3,9.78,26.58-3.62,33.43h0Z"/>
    <path class="st2" d="M376.39,242.26c-4.77.33-9.52-.92-13.46-3.7l-50.95-40.03c-6.11-4.31-9.26-11.45-8.44-19.09.83-7.64,5.48-14.33,12.44-17.89l18.2-9.01c7.27-3.71,15.75-3.23,22.13,1.28l50.96,40.03c6.11,4.31,9.26,11.45,8.44,19.09-.83,7.64-5.48,14.33-12.44,17.89l-.87-1.84.87,1.84-18.2,9.01c-2.78,1.42-5.73,2.22-8.67,2.43h0ZM342.92,154.26c-2.38.16-4.76.82-7,1.96l-18.2,9.01c-5.62,2.87-9.38,8.28-10.05,14.45s1.88,11.94,6.82,15.42l50.95,40.03c5.15,3.64,12,4.03,17.88,1.03l18.2-9.01c5.62-2.87,9.38-8.28,10.05-14.45s-1.88-11.94-6.82-15.42l-50.96-40.03c-3.19-2.25-7.02-3.26-10.87-2.99h0Z"/>
  </g>
  <line class="st13" x1="431.82" y1="100.67" x2="632.78" y2="259.9"/>
  <g>
    <path class="st11" d="M594.87,230.51l-19.11,9.46c-6.88,3.52-14.96,3.05-21-1.21l-53.5-42.03c-12.35-8.71-10.27-27.91,3.8-35.1l19.11-9.46c6.88-3.52,14.96-3.05,21,1.21l53.5,42.03c12.35,8.71,10.27,27.91-3.8,35.1h0Z"/>
    <path class="st10" d="M593.66,219.7l-18.2,9.01c-6.56,3.35-14.25,2.91-20.01-1.15l-50.95-40.03c-11.76-8.3-9.78-26.58,3.62-33.43l18.2-9.01c6.56-3.35,14.25-2.91,20.01,1.15l50.95,40.03c11.76,8.3,9.78,26.58-3.62,33.43h0Z"/>
    <path class="st9" d="M567.66,232.97c-4.77.33-9.52-.92-13.46-3.7l-50.95-40.03c-6.11-4.31-9.26-11.45-8.44-19.09.83-7.64,5.48-14.33,12.44-17.89l18.2-9.01c7.27-3.71,15.75-3.23,22.13,1.28l50.96,40.03c6.11,4.31,9.26,11.45,8.44,19.09-.83,7.64-5.48,14.33-12.44,17.89l-.87-1.84.87,1.84-18.2,9.01c-2.78,1.42-5.73,2.22-8.67,2.43h-.01ZM534.19,144.97c-2.38.16-4.76.82-7,1.96l-18.2,9.01c-5.62,2.87-9.38,8.28-10.05,14.45s1.88,11.94,6.82,15.42l50.95,40.03c5.15,3.64,12,4.03,17.88,1.03l18.2-9.01c5.62-2.87,9.38-8.28,10.05-14.45.67-6.18-1.88-11.94-6.82-15.42l-50.96-40.03c-3.19-2.25-7.02-3.26-10.87-2.99Z"/>
  </g>
</svg>