<?xml version="1.0" encoding="UTF-8"?>
<svg xmlns="http://www.w3.org/2000/svg" xmlns:xlink="http://www.w3.org/1999/xlink" version="1.1" viewBox="0 0 784.08 835.57">
  <!-- Generator: Adobe Illustrator 30.1.0, SVG Export Plug-In . SVG Version: 2.1.1 Build 136)  -->
  <defs>
    <style>
      .st0 {
        fill: url(#linear-gradient3);
      }

      .st1 {
        fill: url(#linear-gradient8);
      }

      .st2 {
        fill: url(#linear-gradient7);
      }

      .st3 {
        fill: url(#linear-gradient4);
      }

      .st4 {
        fill: url(#linear-gradient11);
      }

      .st5 {
        fill: url(#linear-gradient);
      }

      .st6 {
        isolation: isolate;
      }

      .st7 {
        fill: url(#linear-gradient1);
        stroke: url(#linear-gradient2);
      }

      .st7, .st8, .st9 {
        stroke-miterlimit: 10;
        stroke-width: 5px;
      }

      .st8 {
        fill: url(#linear-gradient5);
        stroke: url(#linear-gradient6);
      }

      .st10 {
        mix-blend-mode: hard-light;
      }

      .st9 {
        fill: url(#linear-gradient9);
        stroke: url(#linear-gradient10);
      }
    </style>
    <linearGradient id="linear-gradient" x1="542.06" y1="68.98" x2="542.06" y2="548.28" gradientUnits="userSpaceOnUse">
      <stop offset="0" stop-color="#7f83bf"/>
      <stop offset="1" stop-color="#7253a2"/>
    </linearGradient>
    <linearGradient id="linear-gradient1" x1="643.6" y1="296.47" x2="643.6" y2="-87.04" gradientTransform="translate(-8.57 -10.58) rotate(25) scale(.93 .91) skewX(24.52)" xlink:href="#linear-gradient"/>
    <linearGradient id="linear-gradient2" x1="373.83" y1="330.28" x2="689.77" y2="330.28" gradientUnits="userSpaceOnUse">
      <stop offset="0" stop-color="#916eb0"/>
      <stop offset="1" stop-color="#fff"/>
    </linearGradient>
    <linearGradient id="linear-gradient3" x1="713.96" y1="-33.42" x2="869.73" y2="-206.84" gradientTransform="translate(-8.57 -10.58) rotate(25) scale(.93 .91) skewX(24.52)" xlink:href="#linear-gradient"/>
    <linearGradient id="linear-gradient4" x1="393.2" y1="160.22" x2="393.2" y2="639.52" gradientUnits="userSpaceOnUse">
      <stop offset="0" stop-color="#5656a0"/>
      <stop offset="1" stop-color="#a1cde8"/>
    </linearGradient>
    <linearGradient id="linear-gradient5" x1="396" y1="692.3" x2="364.09" y2="145.28" xlink:href="#linear-gradient4"/>
    <linearGradient id="linear-gradient6" x1="224.97" y1="421.51" x2="540.91" y2="421.51" gradientUnits="userSpaceOnUse">
      <stop offset="0" stop-color="#7f6eb0"/>
      <stop offset="1" stop-color="#b9dfec"/>
    </linearGradient>
    <linearGradient id="linear-gradient7" x1="367.12" y1="248.76" x2="502.35" y2="294.34" xlink:href="#linear-gradient4"/>
    <linearGradient id="linear-gradient8" x1="244.34" y1="251.46" x2="244.34" y2="730.76" gradientUnits="userSpaceOnUse">
      <stop offset="0" stop-color="#fce07e"/>
      <stop offset=".03" stop-color="#fbdc79"/>
      <stop offset=".23" stop-color="#f8c862"/>
      <stop offset=".45" stop-color="#f6ba51"/>
      <stop offset=".69" stop-color="#f5b248"/>
      <stop offset="1" stop-color="#f5b045"/>
    </linearGradient>
    <linearGradient id="linear-gradient9" x1="333.39" y1="333.13" x2="78.38" y2="794.36" xlink:href="#linear-gradient8"/>
    <linearGradient id="linear-gradient10" x1="76.11" y1="512.75" x2="392.05" y2="512.75" gradientUnits="userSpaceOnUse">
      <stop offset="0" stop-color="#f5b045"/>
      <stop offset=".31" stop-color="#f5b248"/>
      <stop offset=".55" stop-color="#f6ba51"/>
      <stop offset=".77" stop-color="#f8c862"/>
      <stop offset=".97" stop-color="#fbdc79"/>
      <stop offset="1" stop-color="#fce07e"/>
    </linearGradient>
    <linearGradient id="linear-gradient11" x1="359.36" y1="287.89" x2="515.12" y2="114.46" gradientTransform="translate(-8.57 -10.58) rotate(25) scale(.93 .91) skewX(24.52)" gradientUnits="userSpaceOnUse">
      <stop offset="0" stop-color="#fce07e"/>
      <stop offset=".03" stop-color="#fbdc79"/>
      <stop offset=".23" stop-color="#f8c862"/>
      <stop offset=".45" stop-color="#f6ba51"/>
      <stop offset=".69" stop-color="#f5b248"/>
      <stop offset="1" stop-color="#f5b045"/>
    </linearGradient>
  </defs>
  <g class="st6">
    <g id="Layer_1">
      <g>
        <g class="st10">
          <path class="st5" d="M666.39,631.06l-235.18-131.46c-13.21-6.01-23.92-23.24-23.92-38.48l-28.63-424.58c4.61-9.6,20.07-13.02,26.43-15.09,3.82-1.24,8.42-.88,13.37,1.37l182.56,83.04c40.79,65.61,63.66,102.4,104.46,168.01v331.51c0,15.24-25.87,31.68-39.09,25.67Z"/>
          <g>
            <path class="st7" d="M663.35,629.91l-263.1-119.67c-13.21-6.01-23.92-23.24-23.92-38.48V47.35c0-15.24,10.71-22.72,23.92-16.71l182.56,83.04c40.79,65.61,63.66,102.4,104.46,168.01v331.51c0,15.24-10.71,22.72-23.92,16.71Z"/>
            <path class="st0" d="M687.08,281.54l-95.58-43.47c-4.8-2.18-8.69-8.44-8.69-13.98v-110.38"/>
          </g>
        </g>
        <g class="st10">
          <path class="st3" d="M517.53,722.3l-235.18-131.46c-13.21-6.01-23.92-23.24-23.92-38.48l-28.63-424.58c4.61-9.6,20.07-13.02,26.43-15.09,3.82-1.24,8.42-.88,13.37,1.37l182.56,83.04c40.79,65.61,63.66,102.4,104.46,168.01v331.51c0,15.24-25.87,31.68-39.09,25.67Z"/>
          <g>
            <path class="st8" d="M514.49,721.15l-263.1-119.67c-13.21-6.01-23.92-23.24-23.92-38.48V138.59c0-15.24,10.71-22.72,23.92-16.71l182.56,83.04c40.79,65.61,63.66,102.4,104.46,168.01v331.51c0,15.24-10.71,22.72-23.92,16.71Z"/>
            <path class="st2" d="M538.22,372.78l-95.58-43.47c-4.8-2.18-8.69-8.44-8.69-13.98v-110.38"/>
          </g>
        </g>
        <g class="st10">
          <path class="st1" d="M368.66,813.54l-235.18-131.46c-13.21-6.01-23.92-23.24-23.92-38.48l-28.63-424.58c4.61-9.6,20.07-13.02,26.43-15.09,3.82-1.24,8.42-.88,13.37,1.37l182.56,83.04c40.79,65.61,63.66,102.4,104.46,168.01v331.51c0,15.24-25.87,31.68-39.09,25.67Z"/>
          <g>
            <path class="st9" d="M365.63,812.39l-263.1-119.67c-13.21-6.01-23.92-23.24-23.92-38.48V229.83c0-15.24,10.71-22.72,23.92-16.71l182.56,83.04c40.79,65.61,63.66,102.4,104.46,168.01v331.51c0,15.24-10.71,22.72-23.92,16.71Z"/>
            <path class="st4" d="M389.36,464.02l-95.58-43.47c-4.8-2.18-8.69-8.44-8.69-13.98v-110.38"/>
          </g>
        </g>
      </g>
    </g>
  </g>
</svg>