<?xml version="1.0" encoding="UTF-8"?>
<svg id="Layer_1" xmlns="http://www.w3.org/2000/svg" xmlns:xlink="http://www.w3.org/1999/xlink" version="1.1" viewBox="0 0 784.08 835.57">
  <!-- Generator: Adobe Illustrator 30.1.0, SVG Export Plug-In . SVG Version: 2.1.1 Build 136)  -->
  <defs>
    <style>
      .st0 {
        fill: url(#linear-gradient2);
      }

      .st1 {
        fill: url(#linear-gradient3);
      }

      .st2 {
        fill: url(#linear-gradient5);
      }

      .st3 {
        fill: url(#linear-gradient4);
      }

      .st4 {
        fill: url(#linear-gradient);
        stroke: url(#linear-gradient1);
        stroke-miterlimit: 10;
        stroke-width: 6px;
      }
    </style>
    <linearGradient id="linear-gradient" x1="45.4" y1="409.31" x2="738.68" y2="409.31" gradientUnits="userSpaceOnUse">
      <stop offset="0" stop-color="#7f83bf"/>
      <stop offset="1" stop-color="#7253a2"/>
    </linearGradient>
    <linearGradient id="linear-gradient1" x1="42.4" y1="409.31" x2="741.68" y2="409.31" gradientUnits="userSpaceOnUse">
      <stop offset="0" stop-color="#916eb0"/>
      <stop offset="1" stop-color="#fff"/>
    </linearGradient>
    <linearGradient id="linear-gradient2" x1="387.8" y1="747.68" x2="387.8" y2="129.83" gradientTransform="translate(0 835.89) scale(1 -1)" gradientUnits="userSpaceOnUse">
      <stop offset="0" stop-color="#fce07e"/>
      <stop offset=".03" stop-color="#fbdc79"/>
      <stop offset=".23" stop-color="#f8c862"/>
      <stop offset=".45" stop-color="#f6ba51"/>
      <stop offset=".69" stop-color="#f5b248"/>
      <stop offset="1" stop-color="#f5b045"/>
    </linearGradient>
    <linearGradient id="linear-gradient3" x1="189.03" y1="418.1" x2="586.58" y2="418.1" gradientTransform="translate(0 835.89) scale(1 -1)" gradientUnits="userSpaceOnUse">
      <stop offset="0" stop-color="#fce07e"/>
      <stop offset=".06" stop-color="#f8d679"/>
      <stop offset=".26" stop-color="#efbf6c"/>
      <stop offset=".47" stop-color="#e9ae63"/>
      <stop offset=".7" stop-color="#e5a55d"/>
      <stop offset="1" stop-color="#e4a25c"/>
    </linearGradient>
    <linearGradient id="linear-gradient4" x1="389.15" y1="535.2" x2="389.15" y2="205.64" xlink:href="#linear-gradient2"/>
    <linearGradient id="linear-gradient5" x1="251.48" y1="389.31" x2="526.81" y2="389.31" xlink:href="#linear-gradient3"/>
  </defs>
  <path class="st4" d="M738.68,453.38v-88.13l-72.81-11.32-9.26-33.42,57.67-46.35-44.15-76.36-69.7,27.01-24.11-23.77,27.22-69.81-55.91-32.22-55.57,145.73c37.33,22.22,66.62,56.71,82.19,97.98h48.18l-36.81,48.44c.29,2.96.52,5.94.68,8.94,5.37,99.2-64.78,184.77-160.25,201.02l-84.74,111.49,6.63,43.45,88.29-.02,11.1-72.24,34.3-9.07,45.55,56.92,76.41-44.25-26.39-67.84c9.17-8.19,17.19-16.3,25.2-25.12l67.71,26.44,44.19-76.34-56.89-45.88,9.1-34.16,72.17-11.12ZM375.65,218.46l70.28-91.55-9.92-64.36-88.21.08-11.64,75.74-31.31,8.61-48.04-59.86-76.34,44.22,27.82,71.54-22.91,22.86-71.52-27.86-44.12,76.44,59.67,47.87-8.48,31.5-75.53,11.64.02,88.19,75.1,11.61,8.35,32.02-59.08,47.38,44.12,76.37,70.06-27.16,23.66,24.18-27.08,69.58,47,27.17,60.26-142.28c-24.75-16.2-45.65-37.98-60.81-63.64l-73.78-.65,49.79-64.85c-1.17-6.85-1.99-13.82-2.41-20.92-6.28-103.69,71.21-194.38,175.05-203.89Z"/>
  <g>
    <path class="st0" d="M245.55,803.73l334.33-439.91h-155.81l124.24-325.8c1.25-3.27-3.12-5.71-5.25-2.93L195.72,487.4l150.44,1.34-126.93,299.74c-7.03,16.61,15.4,29.61,26.31,15.25Z"/>
    <path class="st1" d="M215.06,789.81l126.1-297.79-152.14-1.36L548.99,21.9c3.02-3.93,9.2-.48,7.43,4.15l-127.54,334.44h157.69l-340.11,447.51c-13.02,17.14-39.8,1.62-31.41-18.2ZM202.42,484.13l148.74,1.33-128.55,303.56c-5.55,13.12,12.17,23.38,20.78,12.04l329.78-433.92h-153.94l125.27-328.49L202.42,484.13Z"/>
  </g>
  <g>
    <polygon class="st3" points="461.67 186.52 254.82 459.86 386.45 459.86 285.72 704.99 523.47 390.69 389.15 390.69 461.67 186.52"/>
    <path class="st2" d="M279.31,716.22l104.67-254.71h-132.49l215.36-284.59-75.34,212.09h135.31l-247.5,327.2ZM258.16,458.2h130.77l-96.8,235.57,227.99-301.42h-133.33l69.71-196.25-198.34,262.1Z"/>
  </g>
</svg>