<svg xmlns="http://www.w3.org/2000/svg" id="Layer_1" viewBox="0 0 812.8 509.92"><defs><linearGradient id="linear-gradient" x1="424.89" x2="456.31" y1="182.58" y2="62.98" gradientTransform="matrix(1 0 0 -1 0 509.89)" gradientUnits="userSpaceOnUse"><stop offset="0" stop-color="#7f83bf"/><stop offset="1" stop-color="#7253a2"/></linearGradient><linearGradient id="linear-gradient1" x1="820.7" x2="820.7" y1="-9.75" y2="248.71" gradientTransform="matrix(1 0 -1.37588 -1.47 -234.16 432.97)" gradientUnits="userSpaceOnUse"><stop offset="0" stop-color="#7f83bf"/><stop offset="1" stop-color="#7253a2"/></linearGradient><linearGradient id="linear-gradient2" x1="55.21" x2="757.59" y1="269.39" y2="269.39" gradientTransform="matrix(1 0 0 -1 0 509.89)" gradientUnits="userSpaceOnUse"><stop offset="0" stop-color="#4b403e"/><stop offset="1"/></linearGradient><linearGradient id="linear-gradient3" x1="457.37" x2="1181.13" y1="130.93" y2="130.93" gradientTransform="matrix(1 0 -1.37588 -1.47 -234.16 432.97)" gradientUnits="userSpaceOnUse"><stop offset="0" stop-color="#f5b045"/><stop offset=".31" stop-color="#f5b248"/><stop offset=".55" stop-color="#f6ba51"/><stop offset=".77" stop-color="#f8c862"/><stop offset=".97" stop-color="#fbdc79"/><stop offset="1" stop-color="#fce07e"/></linearGradient><linearGradient id="linear-gradient4" x1="282.31" x2="236.34" y1="114.64" y2="91.31" gradientTransform="rotate(-3.96 6634.68 108.026)scale(1 -1)skewX(2.87)" gradientUnits="userSpaceOnUse"><stop offset=".12" stop-color="#f5b248"/><stop offset=".52" stop-color="#fce07e"/><stop offset="1" stop-color="#f5b045"/></linearGradient><linearGradient id="linear-gradient5" x1="331.43" x2="272.44" y1="75.89" y2="177.36" gradientTransform="rotate(-3.96 6634.68 108.026)scale(1 -1)skewX(2.87)" gradientUnits="userSpaceOnUse"><stop offset=".12" stop-color="#f5b248"/><stop offset=".52" stop-color="#fce07e"/><stop offset="1" stop-color="#f5b045"/></linearGradient><linearGradient id="linear-gradient6" x1="242.27" x2="353.9" y1="131.63" y2="131.63" gradientTransform="rotate(-3.96 6634.68 108.026)scale(1 -1)skewX(2.87)" gradientUnits="userSpaceOnUse"><stop offset="0" stop-color="#f5b045"/><stop offset=".31" stop-color="#f5b248"/><stop offset=".55" stop-color="#f6ba51"/><stop offset=".77" stop-color="#f8c862"/><stop offset=".97" stop-color="#fbdc79"/><stop offset="1" stop-color="#fce07e"/></linearGradient><linearGradient id="linear-gradient7" x1="339.86" x2="293.89" y1="220.35" y2="197.02" gradientTransform="rotate(-3.96 6634.68 108.026)scale(1 -1)skewX(2.87)" gradientUnits="userSpaceOnUse"><stop offset=".12" stop-color="#f5b248"/><stop offset=".52" stop-color="#fce07e"/><stop offset="1" stop-color="#f5b045"/></linearGradient><linearGradient id="linear-gradient8" x1="388.79" x2="329.8" y1="182" y2="283.48" gradientTransform="rotate(-3.96 6634.68 108.026)scale(1 -1)skewX(2.87)" gradientUnits="userSpaceOnUse"><stop offset=".12" stop-color="#f5b248"/><stop offset=".52" stop-color="#fce07e"/><stop offset="1" stop-color="#f5b045"/></linearGradient><linearGradient id="linear-gradient9" x1="299.63" x2="411.25" y1="237.38" y2="237.38" gradientTransform="rotate(-3.96 6634.68 108.026)scale(1 -1)skewX(2.87)" gradientUnits="userSpaceOnUse"><stop offset="0" stop-color="#f5b045"/><stop offset=".31" stop-color="#f5b248"/><stop offset=".55" stop-color="#f6ba51"/><stop offset=".77" stop-color="#f8c862"/><stop offset=".97" stop-color="#fbdc79"/><stop offset="1" stop-color="#fce07e"/></linearGradient><linearGradient id="linear-gradient10" x1="530.98" x2="485.01" y1="216.14" y2="192.81" gradientTransform="rotate(-3.96 6634.68 108.026)scale(1 -1)skewX(2.87)" gradientUnits="userSpaceOnUse"><stop offset=".12" stop-color="#f5b248"/><stop offset=".52" stop-color="#fce07e"/><stop offset="1" stop-color="#f5b045"/></linearGradient><linearGradient id="linear-gradient11" x1="580.29" x2="521.29" y1="178.36" y2="279.83" gradientTransform="rotate(-3.96 6634.68 108.026)scale(1 -1)skewX(2.87)" gradientUnits="userSpaceOnUse"><stop offset=".12" stop-color="#f5b248"/><stop offset=".52" stop-color="#fce07e"/><stop offset="1" stop-color="#f5b045"/></linearGradient><linearGradient id="linear-gradient12" x1="490.61" x2="602.23" y1="233.44" y2="233.44" gradientTransform="rotate(-3.96 6634.68 108.026)scale(1 -1)skewX(2.87)" gradientUnits="userSpaceOnUse"><stop offset="0" stop-color="#f5b045"/><stop offset=".31" stop-color="#f5b248"/><stop offset=".55" stop-color="#f6ba51"/><stop offset=".77" stop-color="#f8c862"/><stop offset=".97" stop-color="#fbdc79"/><stop offset="1" stop-color="#fce07e"/></linearGradient><style>.st13{fill:none;stroke-linecap:round;stroke-width:20px;stroke:#fff}</style></defs><path d="M796.23 293.27 307.51 507.93a23.51 23.51 0 0 1-24.01-3.06L11.47 290.58c-13.95-10.99-11.16-62.87 5.1-70.01L505.28 5.91a23.51 23.51 0 0 1 24.01 3.06l272.03 214.29c13.95 10.99 11.16 62.87-5.1 70.01z" style="fill:url(#linear-gradient)"/><path d="M796.23 261.85 307.51 476.51a23.51 23.51 0 0 1-24.01-3.06L11.47 259.16c-13.95-10.99-11.16-32.87 5.1-40.01L505.28 4.49a23.51 23.51 0 0 1 24.01 3.06l272.03 214.29c13.95 10.99 11.16 32.87-5.1 40.01z" style="fill:url(#linear-gradient1)"/><path d="M745.36 259.06 320.42 445.71a20.43 20.43 0 0 1-20.88-2.66L63.01 256.73c-12.13-9.55-9.7-28.58 4.43-34.79L492.38 35.29a20.43 20.43 0 0 1 20.88 2.66l236.53 186.33c12.13 9.55 9.7 28.58-4.43 34.79Z" style="fill:url(#linear-gradient2)"/><path d="M312.19 449.62c-4.99 0-9.92-1.65-13.99-4.86L61.66 258.43c-6.3-4.96-9.46-12.68-8.44-20.63 1.01-7.96 6-14.63 13.35-17.86L491.5 33.3a22.59 22.59 0 0 1 23.1 2.94l236.53 186.33c6.3 4.96 9.46 12.68 8.44 20.63-1.01 7.96-6 14.63-13.34 17.86l-.87-1.99.87 1.99-424.94 186.65a22.6 22.6 0 0 1-9.11 1.92h.01ZM500.61 35.73c-2.49 0-4.99.51-7.36 1.55L68.31 223.93c-5.93 2.61-9.96 8-10.78 14.42s1.73 12.66 6.82 16.67l236.53 186.33a18.24 18.24 0 0 0 18.66 2.38l424.94-186.65c5.93-2.61 9.96-8 10.78-14.42.82-6.43-1.73-12.66-6.82-16.67L511.91 39.65a18.24 18.24 0 0 0-11.3-3.93Z" style="fill:url(#linear-gradient3)"/><path d="m171.26 212.59 200.96 159.23" style="stroke:#d1d1d1;fill:none;stroke-linecap:round;stroke-width:20px"/><path d="m348.16 349.63-19.11 9.46c-6.88 3.52-14.96 3.05-21-1.21l-53.5-42.03c-12.35-8.71-10.27-27.91 3.8-35.1l19.11-9.46c6.88-3.52 14.96-3.05 21 1.21l53.5 42.03c12.35 8.71 10.27 27.91-3.8 35.1" style="fill:url(#linear-gradient4)"/><path d="m346.95 338.82-18.2 9.01c-6.56 3.35-14.25 2.91-20.01-1.15l-50.95-40.03c-11.76-8.3-9.78-26.58 3.62-33.43l18.2-9.01c6.56-3.35 14.25-2.91 20.01 1.15l50.95 40.03c11.76 8.3 9.78 26.58-3.62 33.43" style="fill:url(#linear-gradient5)"/><path d="M320.95 352.1c-4.77.33-9.52-.92-13.46-3.7l-50.95-40.03c-6.11-4.31-9.26-11.45-8.44-19.09.83-7.64 5.48-14.33 12.44-17.89l18.2-9.01c7.27-3.71 15.75-3.23 22.13 1.28l50.96 40.03c6.11 4.31 9.26 11.45 8.44 19.09-.83 7.64-5.48 14.33-12.44 17.89l-.87-1.84.87 1.84-18.2 9.01a22.6 22.6 0 0 1-8.67 2.43Zm-33.47-88.01c-2.38.16-4.76.82-7 1.96l-18.2 9.01c-5.62 2.87-9.38 8.28-10.05 14.45s1.88 11.94 6.82 15.42L310 344.96c5.15 3.64 12 4.03 17.88 1.03l18.2-9.01c5.62-2.87 9.38-8.28 10.05-14.45s-1.88-11.94-6.82-15.42l-50.96-40.03c-3.19-2.25-7.02-3.26-10.87-2.99" style="fill:url(#linear-gradient6)"/><path d="m305.92 155.75 200.96 159.24" class="st13"/><path d="m403.6 239.8-19.11 9.46c-6.88 3.52-14.96 3.05-21-1.21l-53.5-42.03c-12.35-8.71-10.27-27.91 3.8-35.1l19.11-9.46c6.88-3.52 14.96-3.05 21 1.21l53.5 42.03c12.35 8.71 10.27 27.91-3.8 35.1" style="fill:url(#linear-gradient7)"/><path d="m402.38 228.99-18.2 9.01c-6.56 3.35-14.25 2.91-20.01-1.15l-50.95-40.03c-11.76-8.3-9.78-26.58 3.62-33.43l18.2-9.01c6.56-3.35 14.25-2.91 20.01 1.15L406 195.56c11.76 8.3 9.78 26.58-3.62 33.43" style="fill:url(#linear-gradient8)"/><path d="M376.39 242.26c-4.77.33-9.52-.92-13.46-3.7l-50.95-40.03c-6.11-4.31-9.26-11.45-8.44-19.09.83-7.64 5.48-14.33 12.44-17.89l18.2-9.01c7.27-3.71 15.75-3.23 22.13 1.28l50.96 40.03c6.11 4.31 9.26 11.45 8.44 19.09-.83 7.64-5.48 14.33-12.44 17.89l-.87-1.84.87 1.84-18.2 9.01a22.6 22.6 0 0 1-8.67 2.43Zm-33.47-88c-2.38.16-4.76.82-7 1.96l-18.2 9.01c-5.62 2.87-9.38 8.28-10.05 14.45s1.88 11.94 6.82 15.42l50.95 40.03c5.15 3.64 12 4.03 17.88 1.03l18.2-9.01c5.62-2.87 9.38-8.28 10.05-14.45s-1.88-11.94-6.82-15.42l-50.96-40.03c-3.19-2.25-7.02-3.26-10.87-2.99" style="fill:url(#linear-gradient9)"/><path d="M431.82 100.67 632.78 259.9" class="st13"/><path d="m594.87 230.51-19.11 9.46c-6.88 3.52-14.96 3.05-21-1.21l-53.5-42.03c-12.35-8.71-10.27-27.91 3.8-35.1l19.11-9.46c6.88-3.52 14.96-3.05 21 1.21l53.5 42.03c12.35 8.71 10.27 27.91-3.8 35.1" style="fill:url(#linear-gradient10)"/><path d="m593.66 219.7-18.2 9.01c-6.56 3.35-14.25 2.91-20.01-1.15l-50.95-40.03c-11.76-8.3-9.78-26.58 3.62-33.43l18.2-9.01c6.56-3.35 14.25-2.91 20.01 1.15l50.95 40.03c11.76 8.3 9.78 26.58-3.62 33.43" style="fill:url(#linear-gradient11)"/><path d="M567.66 232.97c-4.77.33-9.52-.92-13.46-3.7l-50.95-40.03c-6.11-4.31-9.26-11.45-8.44-19.09.83-7.64 5.48-14.33 12.44-17.89l18.2-9.01c7.27-3.71 15.75-3.23 22.13 1.28l50.96 40.03c6.11 4.31 9.26 11.45 8.44 19.09-.83 7.64-5.48 14.33-12.44 17.89l-.87-1.84.87 1.84-18.2 9.01a22.6 22.6 0 0 1-8.67 2.43h-.01Zm-33.47-88c-2.38.16-4.76.82-7 1.96l-18.2 9.01c-5.62 2.87-9.38 8.28-10.05 14.45s1.88 11.94 6.82 15.42l50.95 40.03c5.15 3.64 12 4.03 17.88 1.03l18.2-9.01c5.62-2.87 9.38-8.28 10.05-14.45.67-6.18-1.88-11.94-6.82-15.42l-50.96-40.03c-3.19-2.25-7.02-3.26-10.87-2.99" style="fill:url(#linear-gradient12)"/></svg>