<svg xmlns="http://www.w3.org/2000/svg" xmlns:xlink="http://www.w3.org/1999/xlink" viewBox="0 0 784.08 835.57"><defs><linearGradient id="linear-gradient" x1="542.06" x2="542.06" y1="68.98" y2="548.28" gradientUnits="userSpaceOnUse"><stop offset="0" stop-color="#7f83bf"/><stop offset="1" stop-color="#7253a2"/></linearGradient><linearGradient xlink:href="#linear-gradient" id="linear-gradient1" x1="643.6" x2="643.6" y1="296.47" y2="-87.04" gradientTransform="matrix(.84287 .39303 -.00011 1.00402 -8.57 -10.58)"/><linearGradient id="linear-gradient2" x1="373.83" x2="689.77" y1="330.28" y2="330.28" gradientUnits="userSpaceOnUse"><stop offset="0" stop-color="#916eb0"/><stop offset="1" stop-color="#fff"/></linearGradient><linearGradient xlink:href="#linear-gradient" id="linear-gradient3" x1="713.96" x2="869.73" y1="-33.42" y2="-206.84" gradientTransform="matrix(.84287 .39303 -.00011 1.00402 -8.57 -10.58)"/><linearGradient id="linear-gradient4" x1="393.2" x2="393.2" y1="160.22" y2="639.52" gradientUnits="userSpaceOnUse"><stop offset="0" stop-color="#5656a0"/><stop offset="1" stop-color="#a1cde8"/></linearGradient><linearGradient xlink:href="#linear-gradient4" id="linear-gradient5" x1="396" x2="364.09" y1="692.3" y2="145.28"/><linearGradient id="linear-gradient6" x1="224.97" x2="540.91" y1="421.51" y2="421.51" gradientUnits="userSpaceOnUse"><stop offset="0" stop-color="#7f6eb0"/><stop offset="1" stop-color="#b9dfec"/></linearGradient><linearGradient xlink:href="#linear-gradient4" id="linear-gradient7" x1="367.12" x2="502.35" y1="248.76" y2="294.34"/><linearGradient id="linear-gradient8" x1="244.34" x2="244.34" y1="251.46" y2="730.76" gradientUnits="userSpaceOnUse"><stop offset="0" stop-color="#fce07e"/><stop offset=".03" stop-color="#fbdc79"/><stop offset=".23" stop-color="#f8c862"/><stop offset=".45" stop-color="#f6ba51"/><stop offset=".69" stop-color="#f5b248"/><stop offset="1" stop-color="#f5b045"/></linearGradient><linearGradient xlink:href="#linear-gradient8" id="linear-gradient9" x1="333.39" x2="78.38" y1="333.13" y2="794.36"/><linearGradient id="linear-gradient10" x1="76.11" x2="392.05" y1="512.75" y2="512.75" gradientUnits="userSpaceOnUse"><stop offset="0" stop-color="#f5b045"/><stop offset=".31" stop-color="#f5b248"/><stop offset=".55" stop-color="#f6ba51"/><stop offset=".77" stop-color="#f8c862"/><stop offset=".97" stop-color="#fbdc79"/><stop offset="1" stop-color="#fce07e"/></linearGradient><linearGradient id="linear-gradient11" x1="359.36" x2="515.12" y1="287.89" y2="114.46" gradientTransform="matrix(.84287 .39303 -.00011 1.00402 -8.57 -10.58)" gradientUnits="userSpaceOnUse"><stop offset="0" stop-color="#fce07e"/><stop offset=".03" stop-color="#fbdc79"/><stop offset=".23" stop-color="#f8c862"/><stop offset=".45" stop-color="#f6ba51"/><stop offset=".69" stop-color="#f5b248"/><stop offset="1" stop-color="#f5b045"/></linearGradient><style>.st10{mix-blend-mode:hard-light}</style></defs><g style="isolation:isolate"><g id="Layer_1"><g class="st10"><path d="M666.39 631.06 431.21 499.6c-13.21-6.01-23.92-23.24-23.92-38.48L378.66 36.54c4.61-9.6 20.07-13.02 26.43-15.09 3.82-1.24 8.42-.88 13.37 1.37l182.56 83.04c40.79 65.61 63.66 102.4 104.46 168.01v331.51c0 15.24-25.87 31.68-39.09 25.67Z" style="fill:url(#linear-gradient)"/><path d="m663.35 629.91-263.1-119.67c-13.21-6.01-23.92-23.24-23.92-38.48V47.35c0-15.24 10.71-22.72 23.92-16.71l182.56 83.04c40.79 65.61 63.66 102.4 104.46 168.01V613.2c0 15.24-10.71 22.72-23.92 16.71Z" style="fill:url(#linear-gradient1);stroke:url(#linear-gradient2);stroke-miterlimit:10;stroke-width:5px"/><path d="m687.08 281.54-95.58-43.47c-4.8-2.18-8.69-8.44-8.69-13.98V113.71" style="fill:url(#linear-gradient3)"/></g><g class="st10"><path d="M517.53 722.3 282.35 590.84c-13.21-6.01-23.92-23.24-23.92-38.48L229.8 127.78c4.61-9.6 20.07-13.02 26.43-15.09 3.82-1.24 8.42-.88 13.37 1.37l182.56 83.04c40.79 65.61 63.66 102.4 104.46 168.01v331.51c0 15.24-25.87 31.68-39.09 25.67Z" style="fill:url(#linear-gradient4)"/><path d="m514.49 721.15-263.1-119.67c-13.21-6.01-23.92-23.24-23.92-38.48V138.59c0-15.24 10.71-22.72 23.92-16.71l182.56 83.04c40.79 65.61 63.66 102.4 104.46 168.01v331.51c0 15.24-10.71 22.72-23.92 16.71Z" style="stroke-miterlimit:10;stroke-width:5px;fill:url(#linear-gradient5);stroke:url(#linear-gradient6)"/><path d="m538.22 372.78-95.58-43.47c-4.8-2.18-8.69-8.44-8.69-13.98V204.95" style="fill:url(#linear-gradient7)"/></g><g class="st10"><path d="M368.66 813.54 133.48 682.08c-13.21-6.01-23.92-23.24-23.92-38.48L80.93 219.02c4.61-9.6 20.07-13.02 26.43-15.09 3.82-1.24 8.42-.88 13.37 1.37l182.56 83.04c40.79 65.61 63.66 102.4 104.46 168.01v331.51c0 15.24-25.87 31.68-39.09 25.67Z" style="fill:url(#linear-gradient8)"/><path d="m365.63 812.39-263.1-119.67c-13.21-6.01-23.92-23.24-23.92-38.48V229.83c0-15.24 10.71-22.72 23.92-16.71l182.56 83.04c40.79 65.61 63.66 102.4 104.46 168.01v331.51c0 15.24-10.71 22.72-23.92 16.71Z" style="stroke-miterlimit:10;stroke-width:5px;fill:url(#linear-gradient9);stroke:url(#linear-gradient10)"/><path d="m389.36 464.02-95.58-43.47c-4.8-2.18-8.69-8.44-8.69-13.98V296.19" style="fill:url(#linear-gradient11)"/></g></g></g></svg>